<svg xmlns="http://www.w3.org/2000/svg" version="1.1" xmlns:xlink="http://www.w3.org/1999/xlink" width="115" height="35"><svg width="115" height="35" viewBox="0 0 115 35" fill="none" xmlns="http://www.w3.org/2000/svg">
<mask id="SvgjsMask1049" maskUnits="userSpaceOnUse" x="0" y="0" width="102" height="29" fill="black">
<rect fill="white" width="102" height="29"></rect>
<path d="M15.008 27L7.456 17.08V27H1.984V4.536H7.456V14.392L14.944 4.536H21.376L12.672 15.544L21.696 27H15.008ZM41.1285 17.784C41.1285 18.296 41.0965 18.8293 41.0325 19.384H28.6485C28.7338 20.4933 29.0858 21.3467 29.7045 21.944C30.3445 22.52 31.1232 22.808 32.0405 22.808C33.4058 22.808 34.3552 22.232 34.8885 21.08H40.7125C40.4138 22.2533 39.8698 23.3093 39.0805 24.248C38.3125 25.1867 37.3418 25.9227 36.1685 26.456C34.9952 26.9893 33.6832 27.256 32.2325 27.256C30.4832 27.256 28.9258 26.8827 27.5605 26.136C26.1952 25.3893 25.1285 24.3227 24.3605 22.936C23.5925 21.5493 23.2085 19.928 23.2085 18.072C23.2085 16.216 23.5818 14.5947 24.3285 13.208C25.0965 11.8213 26.1632 10.7547 27.5285 10.008C28.8938 9.26133 30.4618 8.888 32.2325 8.888C33.9605 8.888 35.4965 9.25067 36.8405 9.976C38.1845 10.7013 39.2298 11.736 39.9765 13.08C40.7445 14.424 41.1285 15.992 41.1285 17.784ZM35.5285 16.344C35.5285 15.4053 35.2085 14.6587 34.5685 14.104C33.9285 13.5493 33.1285 13.272 32.1685 13.272C31.2512 13.272 30.4725 13.5387 29.8325 14.072C29.2138 14.6053 28.8298 15.3627 28.6805 16.344H35.5285ZM49.4873 3.32V27H44.0153V3.32H49.4873ZM61.4848 21.88L65.3568 9.144H71.1808L64.8448 27H58.0928L51.7568 9.144H57.6128L61.4848 21.88ZM76.236 7.288C75.276 7.288 74.4867 7.01067 73.868 6.456C73.2707 5.88 72.972 5.176 72.972 4.344C72.972 3.49067 73.2707 2.78667 73.868 2.232C74.4867 1.656 75.276 1.368 76.236 1.368C77.1747 1.368 77.9427 1.656 78.54 2.232C79.1587 2.78667 79.468 3.49067 79.468 4.344C79.468 5.176 79.1587 5.88 78.54 6.456C77.9427 7.01067 77.1747 7.288 76.236 7.288ZM78.956 9.144V27H73.484V9.144H78.956ZM93.8015 8.952C95.8922 8.952 97.5562 9.63467 98.7935 11C100.052 12.344 100.682 14.2 100.682 16.568V27H95.2415V17.304C95.2415 16.1093 94.9322 15.1813 94.3135 14.52C93.6948 13.8587 92.8628 13.528 91.8175 13.528C90.7722 13.528 89.9402 13.8587 89.3215 14.52C88.7028 15.1813 88.3935 16.1093 88.3935 17.304V27H82.9215V9.144H88.3935V11.512C88.9482 10.7227 89.6948 10.104 90.6335 9.656C91.5722 9.18667 92.6282 8.952 93.8015 8.952Z"></path>
</mask>
<path d="M15.008 27L7.456 17.08V27H1.984V4.536H7.456V14.392L14.944 4.536H21.376L12.672 15.544L21.696 27H15.008ZM41.1285 17.784C41.1285 18.296 41.0965 18.8293 41.0325 19.384H28.6485C28.7338 20.4933 29.0858 21.3467 29.7045 21.944C30.3445 22.52 31.1232 22.808 32.0405 22.808C33.4058 22.808 34.3552 22.232 34.8885 21.08H40.7125C40.4138 22.2533 39.8698 23.3093 39.0805 24.248C38.3125 25.1867 37.3418 25.9227 36.1685 26.456C34.9952 26.9893 33.6832 27.256 32.2325 27.256C30.4832 27.256 28.9258 26.8827 27.5605 26.136C26.1952 25.3893 25.1285 24.3227 24.3605 22.936C23.5925 21.5493 23.2085 19.928 23.2085 18.072C23.2085 16.216 23.5818 14.5947 24.3285 13.208C25.0965 11.8213 26.1632 10.7547 27.5285 10.008C28.8938 9.26133 30.4618 8.888 32.2325 8.888C33.9605 8.888 35.4965 9.25067 36.8405 9.976C38.1845 10.7013 39.2298 11.736 39.9765 13.08C40.7445 14.424 41.1285 15.992 41.1285 17.784ZM35.5285 16.344C35.5285 15.4053 35.2085 14.6587 34.5685 14.104C33.9285 13.5493 33.1285 13.272 32.1685 13.272C31.2512 13.272 30.4725 13.5387 29.8325 14.072C29.2138 14.6053 28.8298 15.3627 28.6805 16.344H35.5285ZM49.4873 3.32V27H44.0153V3.32H49.4873ZM61.4848 21.88L65.3568 9.144H71.1808L64.8448 27H58.0928L51.7568 9.144H57.6128L61.4848 21.88ZM76.236 7.288C75.276 7.288 74.4867 7.01067 73.868 6.456C73.2707 5.88 72.972 5.176 72.972 4.344C72.972 3.49067 73.2707 2.78667 73.868 2.232C74.4867 1.656 75.276 1.368 76.236 1.368C77.1747 1.368 77.9427 1.656 78.54 2.232C79.1587 2.78667 79.468 3.49067 79.468 4.344C79.468 5.176 79.1587 5.88 78.54 6.456C77.9427 7.01067 77.1747 7.288 76.236 7.288ZM78.956 9.144V27H73.484V9.144H78.956ZM93.8015 8.952C95.8922 8.952 97.5562 9.63467 98.7935 11C100.052 12.344 100.682 14.2 100.682 16.568V27H95.2415V17.304C95.2415 16.1093 94.9322 15.1813 94.3135 14.52C93.6948 13.8587 92.8628 13.528 91.8175 13.528C90.7722 13.528 89.9402 13.8587 89.3215 14.52C88.7028 15.1813 88.3935 16.1093 88.3935 17.304V27H82.9215V9.144H88.3935V11.512C88.9482 10.7227 89.6948 10.104 90.6335 9.656C91.5722 9.18667 92.6282 8.952 93.8015 8.952Z" fill="black"></path>
<path d="M15.008 27L14.2123 27.6057L14.5125 28H15.008V27ZM7.456 17.08L8.25167 16.4743L6.456 14.1156V17.08H7.456ZM7.456 27V28H8.456V27H7.456ZM1.984 27H0.984V28H1.984V27ZM1.984 4.536V3.536H0.984V4.536H1.984ZM7.456 4.536H8.456V3.536H7.456V4.536ZM7.456 14.392H6.456V17.3613L8.25226 14.997L7.456 14.392ZM14.944 4.536V3.536H14.4479L14.1477 3.93105L14.944 4.536ZM21.376 4.536L22.1604 5.15623L23.4415 3.536H21.376V4.536ZM12.672 15.544L11.8876 14.9238L11.3981 15.5428L11.8864 16.1628L12.672 15.544ZM21.696 27V28H23.7567L22.4816 26.3812L21.696 27ZM15.008 27L15.8037 26.3943L8.25167 16.4743L7.456 17.08L6.66033 17.6857L14.2123 27.6057L15.008 27ZM7.456 17.08H6.456V27H7.456H8.456V17.08H7.456ZM7.456 27V26H1.984V27V28H7.456V27ZM1.984 27H2.984V4.536H1.984H0.984V27H1.984ZM1.984 4.536V5.536H7.456V4.536V3.536H1.984V4.536ZM7.456 4.536H6.456V14.392H7.456H8.456V4.536H7.456ZM7.456 14.392L8.25226 14.997L15.7403 5.14095L14.944 4.536L14.1477 3.93105L6.65974 13.787L7.456 14.392ZM14.944 4.536V5.536H21.376V4.536V3.536H14.944V4.536ZM21.376 4.536L20.5916 3.91576L11.8876 14.9238L12.672 15.544L13.4564 16.1642L22.1604 5.15623L21.376 4.536ZM12.672 15.544L11.8864 16.1628L20.9104 27.6188L21.696 27L22.4816 26.3812L13.4576 14.9252L12.672 15.544ZM21.696 27V26H15.008V27V28H21.696V27ZM41.0325 19.384V20.384H41.9238L42.0259 19.4986L41.0325 19.384ZM28.6485 19.384V18.384H27.5686L27.6514 19.4607L28.6485 19.384ZM29.7045 21.944L29.0099 22.6634L29.0225 22.6756L29.0355 22.6873L29.7045 21.944ZM34.8885 21.08V20.08H34.2495L33.981 20.6599L34.8885 21.08ZM40.7125 21.08L41.6816 21.3267L41.9989 20.08H40.7125V21.08ZM39.0805 24.248L38.3151 23.6043L38.3065 23.6148L39.0805 24.248ZM36.1685 26.456L36.5823 27.3664L36.1685 26.456ZM27.5605 26.136L27.0807 27.0134L27.0807 27.0134L27.5605 26.136ZM24.3605 22.936L25.2353 22.4515L25.2353 22.4515L24.3605 22.936ZM24.3285 13.208L23.4536 12.7235L23.448 12.7339L24.3285 13.208ZM27.5285 10.008L28.0083 10.8854L28.0083 10.8854L27.5285 10.008ZM36.8405 9.976L36.3656 10.856L36.3656 10.856L36.8405 9.976ZM39.9765 13.08L39.1023 13.5657L39.1083 13.5761L39.9765 13.08ZM35.5285 16.344V17.344H36.5285V16.344H35.5285ZM34.5685 14.104L35.2234 13.3483L35.2234 13.3483L34.5685 14.104ZM29.8325 14.072L29.1923 13.3038L29.1859 13.3091L29.1796 13.3146L29.8325 14.072ZM28.6805 16.344L27.6919 16.1936L27.5168 17.344H28.6805V16.344ZM41.1285 17.784H40.1285C40.1285 18.2544 40.0991 18.7494 40.0391 19.2694L41.0325 19.384L42.0259 19.4986C42.0939 18.9093 42.1285 18.3376 42.1285 17.784H41.1285ZM41.0325 19.384V18.384H28.6485V19.384V20.384H41.0325V19.384ZM28.6485 19.384L27.6514 19.4607C27.7499 20.7405 28.1685 21.851 29.0099 22.6634L29.7045 21.944L30.3991 21.2246C30.0032 20.8423 29.7178 20.2461 29.6456 19.3073L28.6485 19.384ZM29.7045 21.944L29.0355 22.6873C29.8719 23.44 30.8937 23.808 32.0405 23.808V22.808V21.808C31.3526 21.808 30.8171 21.6 30.3735 21.2007L29.7045 21.944ZM32.0405 22.808V23.808C32.8642 23.808 33.6319 23.6334 34.2952 23.2309C34.9633 22.8256 35.4581 22.2298 35.796 21.5001L34.8885 21.08L33.981 20.6599C33.7855 21.0822 33.5391 21.3504 33.2578 21.5211C32.9718 21.6946 32.5821 21.808 32.0405 21.808V22.808ZM34.8885 21.08V22.08H40.7125V21.08V20.08H34.8885V21.08ZM40.7125 21.08L39.7434 20.8333C39.4824 21.8587 39.0088 22.7795 38.3151 23.6044L39.0805 24.248L39.8459 24.8916C40.7308 23.8392 41.3453 22.6479 41.6816 21.3267L40.7125 21.08ZM39.0805 24.248L38.3065 23.6148C37.6418 24.4272 36.7973 25.0717 35.7547 25.5456L36.1685 26.456L36.5823 27.3664C37.8864 26.7736 38.9832 25.9461 39.8545 24.8812L39.0805 24.248ZM36.1685 26.456L35.7547 25.5456C34.7267 26.0129 33.5584 26.256 32.2325 26.256V27.256V28.256C33.8079 28.256 35.2636 27.9658 36.5823 27.3664L36.1685 26.456ZM32.2325 27.256V26.256C30.6297 26.256 29.241 25.9153 28.0403 25.2586L27.5605 26.136L27.0807 27.0134C28.6107 27.8501 30.3366 28.256 32.2325 28.256V27.256ZM27.5605 26.136L28.0403 25.2586C26.8444 24.6046 25.9133 23.6757 25.2353 22.4515L24.3605 22.936L23.4857 23.4205C24.3437 24.9696 25.5459 26.174 27.0807 27.0134L27.5605 26.136ZM24.3605 22.936L25.2353 22.4515C24.5625 21.2366 24.2085 19.7876 24.2085 18.072H23.2085H22.2085C22.2085 20.0684 22.6225 21.862 23.4857 23.4205L24.3605 22.936ZM23.2085 18.072H24.2085C24.2085 16.3519 24.5537 14.8991 25.209 13.6821L24.3285 13.208L23.448 12.7339C22.61 14.2903 22.2085 16.0801 22.2085 18.072H23.2085ZM24.3285 13.208L25.2033 13.6925C25.8813 12.4683 26.8124 11.5394 28.0083 10.8854L27.5285 10.008L27.0487 9.13063C25.5139 9.96997 24.3117 11.1744 23.4537 12.7235L24.3285 13.208ZM27.5285 10.008L28.0083 10.8854C29.2073 10.2297 30.6061 9.888 32.2325 9.888V8.888V7.888C30.3175 7.888 28.5804 8.29297 27.0487 9.13063L27.5285 10.008ZM32.2325 8.888V9.888C33.8168 9.888 35.1858 10.2193 36.3656 10.856L36.8405 9.976L37.3154 9.09598C35.8072 8.28203 34.1042 7.888 32.2325 7.888V8.888ZM36.8405 9.976L36.3656 10.856C37.5404 11.4901 38.4477 12.3873 39.1023 13.5656L39.9765 13.08L40.8507 12.5944C40.0119 11.0847 38.8286 9.91261 37.3154 9.09598L36.8405 9.976ZM39.9765 13.08L39.1083 13.5761C39.7771 14.7467 40.1285 16.1383 40.1285 17.784H41.1285H42.1285C42.1285 15.8457 41.7119 14.1013 40.8447 12.5839L39.9765 13.08ZM35.5285 16.344H36.5285C36.5285 15.1506 36.1079 14.1149 35.2234 13.3483L34.5685 14.104L33.9136 14.8597C34.3091 15.2025 34.5285 15.6601 34.5285 16.344H35.5285ZM34.5685 14.104L35.2234 13.3483C34.3773 12.615 33.3348 12.272 32.1685 12.272V13.272V14.272C32.9222 14.272 33.4797 14.4837 33.9136 14.8597L34.5685 14.104ZM32.1685 13.272V12.272C31.0425 12.272 30.0306 12.6052 29.1923 13.3038L29.8325 14.072L30.4727 14.8402C30.9144 14.4721 31.4598 14.272 32.1685 14.272V13.272ZM29.8325 14.072L29.1796 13.3146C28.3434 14.0354 27.8691 15.0292 27.6919 16.1936L28.6805 16.344L29.6691 16.4944C29.7906 15.6961 30.0843 15.1752 30.4854 14.8294L29.8325 14.072ZM28.6805 16.344V17.344H35.5285V16.344V15.344H28.6805V16.344ZM49.4873 3.32H50.4873V2.32H49.4873V3.32ZM49.4873 27V28H50.4873V27H49.4873ZM44.0153 27H43.0153V28H44.0153V27ZM44.0153 3.32V2.32H43.0153V3.32H44.0153ZM49.4873 3.32H48.4873V27H49.4873H50.4873V3.32H49.4873ZM49.4873 27V26H44.0153V27V28H49.4873V27ZM44.0153 27H45.0153V3.32H44.0153H43.0153V27H44.0153ZM44.0153 3.32V4.32H49.4873V3.32V2.32H44.0153V3.32ZM61.4848 21.88L60.528 22.1709L61.4848 25.3179L62.4415 22.1709L61.4848 21.88ZM65.3568 9.144V8.144H64.6156L64.4 8.85312L65.3568 9.144ZM71.1808 9.144L72.1232 9.47841L72.5967 8.144H71.1808V9.144ZM64.8448 27V28H65.551L65.7872 27.3344L64.8448 27ZM58.0928 27L57.1503 27.3344L57.3865 28H58.0928V27ZM51.7568 9.144V8.144H50.3408L50.8143 9.47841L51.7568 9.144ZM57.6128 9.144L58.5695 8.85312L58.3539 8.144H57.6128V9.144ZM61.4848 21.88L62.4415 22.1709L66.3135 9.43487L65.3568 9.144L64.4 8.85312L60.528 21.5891L61.4848 21.88ZM65.3568 9.144V10.144H71.1808V9.144V8.144H65.3568V9.144ZM71.1808 9.144L70.2383 8.80959L63.9023 26.6656L64.8448 27L65.7872 27.3344L72.1232 9.47841L71.1808 9.144ZM64.8448 27V26H58.0928V27V28H64.8448V27ZM58.0928 27L59.0352 26.6656L52.6992 8.80959L51.7568 9.144L50.8143 9.47841L57.1503 27.3344L58.0928 27ZM51.7568 9.144V10.144H57.6128V9.144V8.144H51.7568V9.144ZM57.6128 9.144L56.656 9.43487L60.528 22.1709L61.4848 21.88L62.4415 21.5891L58.5695 8.85312L57.6128 9.144ZM73.868 6.456L73.1739 7.17584L73.1869 7.18845L73.2005 7.20057L73.868 6.456ZM73.868 2.232L74.5485 2.96479L74.5494 2.96389L73.868 2.232ZM78.54 2.232L77.8459 2.95184L77.8589 2.96445L77.8725 2.97657L78.54 2.232ZM78.54 6.456L79.2205 7.18879L79.2214 7.18789L78.54 6.456ZM78.956 9.144H79.956V8.144H78.956V9.144ZM78.956 27V28H79.956V27H78.956ZM73.484 27H72.484V28H73.484V27ZM73.484 9.144V8.144H72.484V9.144H73.484ZM76.236 7.288V6.288C75.4816 6.288 74.9425 6.07629 74.5355 5.71143L73.868 6.456L73.2005 7.20057C74.0308 7.94504 75.0704 8.288 76.236 8.288V7.288ZM73.868 6.456L74.5621 5.73616C74.1608 5.34919 73.972 4.90529 73.972 4.344H72.972H71.972C71.972 5.44671 72.3805 6.41081 73.1739 7.17584L73.868 6.456ZM72.972 4.344H73.972C73.972 3.75405 74.1654 3.32048 74.5485 2.96479L73.868 2.232L73.1875 1.49921C72.3759 2.25285 71.972 3.22728 71.972 4.344H72.972ZM73.868 2.232L74.5494 2.96389C74.9576 2.58383 75.4919 2.368 76.236 2.368V1.368V0.367998C75.0601 0.367998 74.0157 0.72817 73.1866 1.5001L73.868 2.232ZM76.236 1.368V2.368C76.9526 2.368 77.4598 2.57959 77.8459 2.95184L78.54 2.232L79.2341 1.51215C78.4255 0.732402 77.3968 0.367998 76.236 0.367998V1.368ZM78.54 2.232L77.8725 2.97657C78.2731 3.33579 78.468 3.76608 78.468 4.344H79.468H80.468C80.468 3.21525 80.0442 2.23754 79.2075 1.48743L78.54 2.232ZM79.468 4.344H78.468C78.468 4.89339 78.2778 5.33384 77.8586 5.72411L78.54 6.456L79.2214 7.18789C80.0396 6.42616 80.468 5.45861 80.468 4.344H79.468ZM78.54 6.456L77.8596 5.72321C77.4752 6.08012 76.9633 6.288 76.236 6.288V7.288V8.288C77.3861 8.288 78.4102 7.94121 79.2205 7.18879L78.54 6.456ZM78.956 9.144H77.956V27H78.956H79.956V9.144H78.956ZM78.956 27V26H73.484V27V28H78.956V27ZM73.484 27H74.484V9.144H73.484H72.484V27H73.484ZM73.484 9.144V10.144H78.956V9.144V8.144H73.484V9.144ZM98.7935 11L98.0525 11.6715L98.058 11.6776L98.0636 11.6836L98.7935 11ZM100.682 27V28H101.682V27H100.682ZM95.2415 27H94.2415V28H95.2415V27ZM94.3135 14.52L93.5832 15.2032L93.5832 15.2032L94.3135 14.52ZM89.3215 14.52L90.0518 15.2032L90.0518 15.2032L89.3215 14.52ZM88.3935 27V28H89.3935V27H88.3935ZM82.9215 27H81.9215V28H82.9215V27ZM82.9215 9.144V8.144H81.9215V9.144H82.9215ZM88.3935 9.144H89.3935V8.144H88.3935V9.144ZM88.3935 11.512H87.3935V14.6744L89.2117 12.0869L88.3935 11.512ZM90.6335 9.656L91.0642 10.5585L91.0725 10.5545L91.0807 10.5504L90.6335 9.656ZM93.8015 8.952V9.952C95.6519 9.952 97.0313 10.5446 98.0525 11.6715L98.7935 11L99.5345 10.3285C98.0811 8.72472 96.1324 7.952 93.8015 7.952V8.952ZM98.7935 11L98.0636 11.6836C99.1034 12.7938 99.6815 14.3787 99.6815 16.568H100.682H101.682C101.682 14.0213 101.001 11.8942 99.5234 10.3164L98.7935 11ZM100.682 16.568H99.6815V27H100.682H101.682V16.568H100.682ZM100.682 27V26H95.2415V27V28H100.682V27ZM95.2415 27H96.2415V17.304H95.2415H94.2415V27H95.2415ZM95.2415 17.304H96.2415C96.2415 15.9388 95.8852 14.7363 95.0438 13.8368L94.3135 14.52L93.5832 15.2032C93.9791 15.6263 94.2415 16.2799 94.2415 17.304H95.2415ZM94.3135 14.52L95.0438 13.8368C94.2063 12.9416 93.0929 12.528 91.8175 12.528V13.528V14.528C92.6328 14.528 93.1834 14.7757 93.5832 15.2032L94.3135 14.52ZM91.8175 13.528V12.528C90.5421 12.528 89.4287 12.9416 88.5912 13.8368L89.3215 14.52L90.0518 15.2032C90.4516 14.7757 91.0022 14.528 91.8175 14.528V13.528ZM89.3215 14.52L88.5912 13.8368C87.7498 14.7363 87.3935 15.9388 87.3935 17.304H88.3935H89.3935C89.3935 16.2799 89.6559 15.6263 90.0518 15.2032L89.3215 14.52ZM88.3935 17.304H87.3935V27H88.3935H89.3935V17.304H88.3935ZM88.3935 27V26H82.9215V27V28H88.3935V27ZM82.9215 27H83.9215V9.144H82.9215H81.9215V27H82.9215ZM82.9215 9.144V10.144H88.3935V9.144V8.144H82.9215V9.144ZM88.3935 9.144H87.3935V11.512H88.3935H89.3935V9.144H88.3935ZM88.3935 11.512L89.2117 12.0869C89.6598 11.4492 90.2682 10.9384 91.0642 10.5585L90.6335 9.656L90.2028 8.75352C89.1214 9.26961 88.2365 9.99614 87.5753 10.9371L88.3935 11.512ZM90.6335 9.656L91.0807 10.5504C91.8649 10.1584 92.7649 9.952 93.8015 9.952V8.952V7.952C92.4914 7.952 91.2795 8.21498 90.1863 8.76157L90.6335 9.656Z" fill="black" mask="url(#path-1-outside-1_2_19)"></path>
<circle cx="111" cy="31" r="3.5" fill="#FDA300" stroke="black"></circle>
</svg><style>@media (prefers-color-scheme: light) { :root { filter: none; } }
@media (prefers-color-scheme: dark) { :root { filter: none; } }
</style></svg>